<svg xmlns="http://www.w3.org/2000/svg" viewBox="0 0 128 128">
  <defs>
    <linearGradient id="bg" x1="0" y1="0" x2="1" y2="1">
      <stop offset="0%" stop-color="#184f86"/>
      <stop offset="100%" stop-color="#1a2f66"/>
    </linearGradient>
    <linearGradient id="barA" x1="0" y1="0" x2="1" y2="1">
      <stop offset="0%" stop-color="#35d0c8"/>
      <stop offset="100%" stop-color="#1591cc"/>
    </linearGradient>
    <linearGradient id="barB" x1="0" y1="0" x2="1" y2="1">
      <stop offset="0%" stop-color="#7ad9ff"/>
      <stop offset="100%" stop-color="#ffffff"/>
    </linearGradient>
    <linearGradient id="barC" x1="0" y1="0" x2="1" y2="1">
      <stop offset="0%" stop-color="#a6dd5d"/>
      <stop offset="100%" stop-color="#45c17c"/>
    </linearGradient>
    <linearGradient id="arrow" x1="0" y1="0" x2="1" y2="1">
      <stop offset="0%" stop-color="#ffb347"/>
      <stop offset="100%" stop-color="#ff5a2f"/>
    </linearGradient>
  </defs>
  <rect x="8" y="8" width="112" height="112" rx="20" fill="url(#bg)"/>
  <g opacity=".12" stroke="#d9eeff" stroke-width="2">
    <path d="M24 40h80"/>
    <path d="M24 64h80"/>
    <path d="M24 88h80"/>
    <path d="M48 24v80"/>
    <path d="M72 24v80"/>
  </g>
  <path d="M35 80V53h19v27z" fill="url(#barA)"/>
  <path d="M58 80V38h19v42c-4 6-12 8-19 0z" fill="url(#barB)"/>
  <path d="M81 80V47l19 17v16z" fill="url(#barC)"/>
  <path d="M78 40l30-8-8 30-7-7-16 16c-7 7-18 7-25 0l5-7c4 4 9 4 13 0l15-15z" fill="url(#arrow)"/>
  <path d="M62 87c-5 0-9-2-13-5l4-7c3 2 6 3 9 3 3 0 5-1 5-3 0-2-2-3-5-4l-3-1c-7-2-11-6-11-13 0-8 7-14 17-14 5 0 10 2 13 5l-5 7c-3-2-5-3-8-3-3 0-5 1-5 3 0 2 2 3 6 4l3 1c8 2 11 7 11 13 0 8-6 14-18 14z" fill="#18386c" opacity=".9"/>
</svg>
